# xmcd CD database file
#
# Track frame offsets:
#	150
#	22832
#	43499
#	55384
#	69131
#	84288
#	104260
#	126947
#	140275
#	162526
#
# Disc length: 2475 seconds
#
# Revision: 0
# Processed by: cddbd v1.5.2PL0 Copyright (c) Steve Scherf et al.
# Submitted via: CDex 1.51
#
DISCID=8209a90a
DTITLE=The Broken Prayers - Crow
DYEAR=2008
DGENRE=Country
TTITLE0=Little Black Heart
TTITLE1=Act Naturally
TTITLE2=Long Life Stomp
TTITLE3=Drunk In A Dry Town
TTITLE4=Adrift On The Sea
TTITLE5=Convalescent Man
TTITLE6=Laurel Canyon
TTITLE7=Wreckin' Ball
TTITLE8=Sleeping Hollow
TTITLE9=1,000 Angels
EXTD=YEAR: 2008
EXTT0=
EXTT1=
EXTT2=
EXTT3=
EXTT4=
EXTT5=
EXTT6=
EXTT7=
EXTT8=
EXTT9=
PLAYORDER=
